<svg xmlns="http://www.w3.org/2000/svg" viewBox="0 0 299 77"><defs><style>.cls-1{fill:#2774ae;}</style></defs><title>Uxd_Blk_Statistics_A</title><g id="Unboxed_Black" data-name="Unboxed Black"><path d="M112.67,25.06c0-2.84,1.7-5,4.57-5a3.59,3.59,0,0,1,3.88,3.08h-1.19a2.52,2.52,0,0,0-2.71-2c-2.12,0-3.31,1.72-3.31,4s1.31,4,3.32,4A2.68,2.68,0,0,0,120,26.35h1.2a4.1,4.1,0,0,1-1.16,2.72,4,4,0,0,1-2.89,1C114.45,30.08,112.67,28,112.67,25.06Z"/><path d="M122.08,26.41a3.38,3.38,0,1,1,6.74,0,3.38,3.38,0,1,1-6.74,0Zm5.62,0c0-1.54-.76-2.77-2.24-2.77s-2.26,1.23-2.26,2.77.77,2.75,2.26,2.75S127.7,28,127.7,26.41Z"/><path d="M129.93,20.24H131v9.65h-1.09Z"/><path d="M132.48,20.24h1.1v9.65h-1.1Z"/><path d="M134.66,26.41A3.41,3.41,0,0,1,138,22.73c2.1,0,3.22,1.62,3.22,3.93h-5.41c.09,1.42.86,2.5,2.26,2.5A1.81,1.81,0,0,0,140,27.73H141a2.85,2.85,0,0,1-3,2.35A3.38,3.38,0,0,1,134.66,26.41Zm1.15-.57H140c-.07-1.39-.78-2.24-2-2.24S136,24.57,135.81,25.84Z"/><path d="M142.08,30.28h1c.11.77.84,1.07,1.92,1.07,1.28,0,2-.58,2-1.8v-1h0a2.37,2.37,0,0,1-2.06,1.08c-1.81,0-3-1.45-3-3.46,0-2.17,1.36-3.44,3-3.44A2.41,2.41,0,0,1,147,23.8h0v-.89h1.09v6.6c0,1.84-1.21,2.7-3.06,2.7S142.2,31.48,142.08,30.28Zm5-4.14c0-1.53-.65-2.47-2.13-2.47-1.31,0-2,1-2,2.53s.69,2.53,2,2.53C146.58,28.73,147.09,27.61,147.09,26.14Z"/><path d="M149.18,26.41a3.41,3.41,0,0,1,3.31-3.68c2.09,0,3.21,1.62,3.21,3.93h-5.4c.08,1.42.85,2.5,2.25,2.5a1.82,1.82,0,0,0,1.94-1.43h1.06a2.84,2.84,0,0,1-3,2.35A3.37,3.37,0,0,1,149.18,26.41Zm1.15-.57h4.2c-.07-1.39-.79-2.24-2-2.24S150.49,24.57,150.33,25.84Z"/><path d="M161.36,19.71h.94V31.48h-.94Z"/><path d="M168.54,20.24h4a2.87,2.87,0,0,1,2.3.93,2.79,2.79,0,0,1,.65,1.83c0,1.77-1,2.84-3.12,2.84h-2.64v4.05h-1.21Zm1.21,4.61h2.54c1.37,0,2-.68,2-1.79s-.71-1.77-1.94-1.77h-2.61Z"/><path d="M177.54,23.83h0a2.62,2.62,0,0,1,2.21-1.08A2.09,2.09,0,0,1,182.13,25v4.9H181V25.08c0-.9-.6-1.41-1.58-1.41a1.85,1.85,0,0,0-1.92,1.93v4.29h-1.09V20.24h1.09Z"/><path d="M183.21,32.05v-1h.06a1.49,1.49,0,0,0,.74.15c.46,0,.77-.18,1-.85l.27-.69-2.73-6.78h1.19l1.65,4.35c.21.58.47,1.36.47,1.36h0s.24-.78.45-1.36l1.6-4.35h1.16l-3,7.55c-.57,1.44-1.11,1.74-2,1.74A2.46,2.46,0,0,1,183.21,32.05Z"/><path d="M189.26,27.62h1.13c.14,1.22,1,1.55,2,1.55S194,28.67,194,28c0-.79-.54-1-1.82-1.26s-2.6-.57-2.6-2.09c0-1.16.89-1.92,2.51-1.92s2.58.82,2.74,2.19h-1.12c-.11-.92-.61-1.33-1.65-1.33s-1.4.45-1.4,1c0,.76.67.91,1.87,1.15,1.41.29,2.58.6,2.58,2.2,0,1.41-1.15,2.12-2.75,2.12C190.44,30.09,189.37,29.19,189.26,27.62Z"/><path d="M196.16,20.24h1.1v1.35h-1.1Zm0,2.67h1.1v7h-1.1Z"/><path d="M198.33,26.41a3.4,3.4,0,0,1,3.37-3.68,2.82,2.82,0,0,1,3,2.43h-1.11a1.75,1.75,0,0,0-1.88-1.52c-1.48,0-2.25,1.23-2.25,2.77s.77,2.75,2.25,2.75a1.74,1.74,0,0,0,1.9-1.73h1.09a2.73,2.73,0,0,1-3,2.65A3.4,3.4,0,0,1,198.33,26.41Z"/><path d="M210,28.92h0A2.82,2.82,0,0,1,207.7,30c-1.33,0-2.37-.63-2.37-2,0-1.65,1.3-2,3-2.25,1-.15,1.68-.25,1.68-1s-.57-1.23-1.57-1.23-1.7.48-1.74,1.54h-1.06c0-1.35.94-2.37,2.79-2.37,1.48,0,2.57.56,2.57,2.22v3.32c0,.57.14.88.75.74h0v.8a1.6,1.6,0,0,1-.6.11A1.08,1.08,0,0,1,210,28.92Zm0-1.61V26.12a5.12,5.12,0,0,1-1.59.52c-1.1.2-2,.39-2,1.41s.73,1.14,1.45,1.14A2,2,0,0,0,210.06,27.31Z"/><path d="M212.65,20.24h1.09v9.65h-1.09Z"/><path d="M217,26.62h1.19c.16,1.64,1.16,2.49,3,2.49,1.34,0,2.3-.61,2.3-1.81s-1.17-1.64-2.89-2-3.16-.87-3.16-2.69c0-1.6,1.32-2.55,3.28-2.55,2.41,0,3.41,1.23,3.66,3h-1.15A2.23,2.23,0,0,0,220.69,21c-1.31,0-2.17.55-2.17,1.55s1.08,1.42,2.53,1.71c1.87.37,3.59.83,3.59,3,0,1.81-1.47,2.82-3.55,2.82C218.37,30.08,217.08,28.57,217,26.62Z"/><path d="M225.5,26.41a3.4,3.4,0,0,1,3.37-3.68,2.82,2.82,0,0,1,3,2.43h-1.11a1.74,1.74,0,0,0-1.88-1.52c-1.48,0-2.25,1.23-2.25,2.77s.77,2.75,2.25,2.75a1.76,1.76,0,0,0,1.91-1.73h1.08a2.73,2.73,0,0,1-3,2.65A3.4,3.4,0,0,1,225.5,26.41Z"/><path d="M232.9,20.24H234v1.35H232.9Zm0,2.67H234v7H232.9Z"/><path d="M235.06,26.41a3.41,3.41,0,0,1,3.3-3.68c2.1,0,3.22,1.62,3.22,3.93h-5.4c.08,1.42.85,2.5,2.25,2.5a1.81,1.81,0,0,0,1.93-1.43h1.07a2.84,2.84,0,0,1-3,2.35A3.37,3.37,0,0,1,235.06,26.41Zm1.14-.57h4.2c-.06-1.39-.78-2.24-2-2.24S236.37,24.57,236.2,25.84Z"/><path d="M243.71,23.83h0A2.62,2.62,0,0,1,246,22.75,2.09,2.09,0,0,1,248.3,25v4.9h-1.09V25.08c0-.9-.59-1.41-1.58-1.41a1.85,1.85,0,0,0-1.92,1.93v4.29h-1.09v-7h1.09Z"/><path d="M249.33,26.41a3.41,3.41,0,0,1,3.38-3.68,2.81,2.81,0,0,1,3,2.43h-1.11a1.74,1.74,0,0,0-1.87-1.52c-1.49,0-2.26,1.23-2.26,2.77s.77,2.75,2.26,2.75a1.75,1.75,0,0,0,1.9-1.73h1.08a2.73,2.73,0,0,1-3,2.65A3.41,3.41,0,0,1,249.33,26.41Z"/><path d="M256.32,26.41a3.41,3.41,0,0,1,3.31-3.68c2.1,0,3.22,1.62,3.22,3.93h-5.41c.09,1.42.86,2.5,2.26,2.5a1.81,1.81,0,0,0,1.93-1.43h1.07a2.85,2.85,0,0,1-3,2.35A3.38,3.38,0,0,1,256.32,26.41Zm1.15-.57h4.2c-.07-1.39-.78-2.24-2-2.24S257.63,24.57,257.47,25.84Z"/><path d="M263.43,27.62h1.12c.14,1.22,1,1.55,2,1.55s1.62-.5,1.62-1.14c0-.79-.54-1-1.83-1.26s-2.6-.57-2.6-2.09c0-1.16.89-1.92,2.51-1.92s2.58.82,2.74,2.19h-1.12c-.11-.92-.61-1.33-1.65-1.33s-1.4.45-1.4,1c0,.76.67.91,1.87,1.15,1.41.29,2.58.6,2.58,2.2,0,1.41-1.15,2.12-2.75,2.12C264.6,30.09,263.53,29.19,263.43,27.62Z"/><path d="M112.68,47.27h3.45c.24,2.09,1.43,2.91,3.9,2.91,1.79,0,3.37-.63,3.37-2.23s-1.65-2-4.29-2.64c-3.1-.71-5.94-1.53-5.94-5.14,0-3.42,2.79-5.19,6.64-5.19s6.43,1.92,6.69,5.41h-3.37c-.19-1.75-1.55-2.62-3.34-2.62s-3.13.8-3.13,2c0,1.41,1.21,1.82,3.78,2.38,3.57.78,6.48,1.63,6.48,5.36,0,3.51-2.84,5.48-6.74,5.48C115.47,53,112.81,50.93,112.68,47.27Z"/><path d="M127.71,40.19h1.72V36.31h3.23v3.88h2.13v2.18h-2.13V49a1.09,1.09,0,0,0,1.23,1.24c.42,0,1,0,1,0v2.43s-.75,0-2.06,0c-1.6,0-3.37-.63-3.37-3v-7.3h-1.72Z"/><path d="M143.79,51.25h0c-.63.94-1.53,1.67-3.66,1.67-2.55,0-4.34-1.33-4.34-3.81,0-2.74,2.23-3.61,5-4,2.06-.29,3-.46,3-1.4s-.7-1.48-2.09-1.48c-1.55,0-2.3.56-2.4,1.74h-2.93c.1-2.18,1.72-4.09,5.36-4.09s5.24,1.67,5.24,4.58v6.33c0,.94.14,1.5.43,1.72v.12h-3.17A3.21,3.21,0,0,1,143.79,51.25Zm0-3V46.37a9,9,0,0,1-2.3.73c-1.72.39-2.57.78-2.57,1.94s.77,1.58,1.94,1.58C142.77,50.62,143.81,49.45,143.81,48.24Z"/><path d="M147.87,40.19h1.72V36.31h3.22v3.88H155v2.18h-2.14V49a1.1,1.1,0,0,0,1.24,1.24c.41,0,1,0,1,0v2.43s-.75,0-2.06,0c-1.6,0-3.37-.63-3.37-3v-7.3h-1.72Z"/><path d="M156.49,35.29h3.29v3h-3.29Zm0,4.9h3.29V52.63h-3.29Z"/><path d="M161.14,48.61h3.06c.22,1.43,1.23,2.06,2.71,2.06s2.28-.56,2.28-1.43c0-1.19-1.57-1.31-3.27-1.65-2.23-.44-4.41-1.05-4.41-3.76s2.23-4,5.06-4c3.28,0,5.1,1.63,5.34,4.12h-3c-.15-1.33-1-1.81-2.41-1.81s-2.13.48-2.13,1.38c0,1.06,1.65,1.16,3.42,1.53,2.09.43,4.39,1,4.39,3.92,0,2.5-2.14,4-5.24,4C163.35,53,161.34,51.25,161.14,48.61Z"/><path d="M172.68,40.19h1.72V36.31h3.23v3.88h2.13v2.18h-2.13V49a1.1,1.1,0,0,0,1.24,1.24c.41,0,1,0,1,0v2.43s-.75,0-2.06,0c-1.6,0-3.37-.63-3.37-3v-7.3h-1.72Z"/><path d="M181.3,35.29h3.3v3h-3.3Zm0,4.9h3.3V52.63h-3.3Z"/><path d="M186.08,46.42c0-3.71,2.43-6.57,6.21-6.57a5.29,5.29,0,0,1,5.65,4.56h-3.23a2.26,2.26,0,0,0-2.27-1.91c-2,0-3,1.52-3,3.92s.94,3.93,3,3.93a2.31,2.31,0,0,0,2.49-2.11h3.18c-.22,2.64-2.28,4.75-5.6,4.75C188.53,53,186.08,50.13,186.08,46.42Z"/><path d="M198.78,48.61h3.05c.22,1.43,1.24,2.06,2.72,2.06s2.28-.56,2.28-1.43c0-1.19-1.58-1.31-3.27-1.65-2.23-.44-4.42-1.05-4.42-3.76s2.23-4,5.07-4c3.27,0,5.09,1.63,5.33,4.12h-3c-.14-1.33-1-1.81-2.4-1.81s-2.13.48-2.13,1.38c0,1.06,1.65,1.16,3.42,1.53,2.08.43,4.39,1,4.39,3.92,0,2.5-2.14,4-5.24,4C201,53,199,51.25,198.78,48.61Z"/><g id="_logo_" data-name="&lt;logo&gt;"><path class="cls-1" d="M20.07,45.18A25.11,25.11,0,0,1,20,42.37l1.34-15.21h5L25,42.5c-.3,3.32,1,5.69,4.32,5.69s5.18-2.41,5.48-5.35l1.41-15.68h5L39.78,42.64c-.56,6-4.51,10.42-10.9,10.42-5,0-8.2-3.22-8.81-7.88"/><path class="cls-1" d="M42.3,40c.65-7.3,5.57-13.35,14.08-13.35a11.68,11.68,0,0,1,6.54,1.89l-.57,6a7.36,7.36,0,0,0-6.45-3c-5.29,0-8.19,3.68-8.61,8.33s1.94,8.22,7.07,8.22A9.5,9.5,0,0,0,61.46,45l-.56,6.19A14.31,14.31,0,0,1,54,53.12c-8.42,0-12.28-6.25-11.67-13.09"/><path class="cls-1" d="M66.89,27.16h5L70,47.81h7.12c.5,0,2.19,0,2.65-.05,0,.25-.45,4.77-.45,4.77H64.64Z"/><path class="cls-1" d="M92.76,36.63a6.8,6.8,0,0,0,.37-1.06h.08a5.79,5.79,0,0,0,.18,1.08c.28,1.15,2.21,7.58,2.21,7.58H89.33s3.36-7.42,3.43-7.59M94,26h-.34L80.09,52.53h5.28l1.91-4h9.58l1.19,4h5.27Z"/></g></g></svg>